HIERARCHY
ROOT Hips
{
	OFFSET 0.000000 88.474243 0.000000
	CHANNELS 6 Xposition Yposition Zposition Zrotation Yrotation Xrotation 
	JOINT Hips_Spine
	{
		OFFSET 0.000000 0.000000 0.000000
		CHANNELS 3 Zrotation Yrotation Xrotation
		JOINT Spine
		{
			OFFSET 0.005100 8.711998 -0.691000
			CHANNELS 3 Zrotation Yrotation Xrotation
			JOINT Spine1
			{
				OFFSET -0.009200 8.660301 -1.275000
				CHANNELS 3 Zrotation Yrotation Xrotation
				JOINT Spine2
				{
					OFFSET 0.006300 9.852501 -1.857000
					CHANNELS 3 Zrotation Yrotation Xrotation
					JOINT Spine2_Neck
					{
						OFFSET 0.000000 0.000000 0.000000
						CHANNELS 3 Zrotation Yrotation Xrotation
						JOINT Neck
						{
							OFFSET 0.016300 11.420799 -0.263300
							CHANNELS 3 Zrotation Yrotation Xrotation
							End Site #name: Head
							{
								OFFSET -0.019200 9.262405 2.362500
							}
						}
					}
					JOINT Spine2_LeftShoulder
					{
						OFFSET 0.000000 0.000000 0.000000
						CHANNELS 3 Zrotation Yrotation Xrotation
						JOINT LeftShoulder
						{
							OFFSET 5.616900 6.732201 -0.345700
							CHANNELS 3 Zrotation Yrotation Xrotation
							JOINT LeftArm
							{
								OFFSET 10.664888 -0.183372 -2.440700
								CHANNELS 3 Zrotation Yrotation Xrotation
								JOINT LeftForeArm
								{
									OFFSET 27.459126 0.000000 0.000000
									CHANNELS 3 Zrotation Yrotation Xrotation
									End Site #name: LeftHand
									{
										OFFSET 21.306858 0.000000 0.000000
									}
								}
							}
						}
					}
					JOINT Spine2_RightShoulder
					{
						OFFSET 0.000000 0.000000 0.000000
						CHANNELS 3 Zrotation Yrotation Xrotation
						JOINT RightShoulder
						{
							OFFSET -5.580300 6.737503 -0.344400
							CHANNELS 3 Zrotation Yrotation Xrotation
							JOINT RightArm
							{
								OFFSET -10.679335 -0.188484 -2.383900
								CHANNELS 3 Zrotation Yrotation Xrotation
								JOINT RightForeArm
								{
									OFFSET -27.503529 0.000000 0.000000
									CHANNELS 3 Zrotation Yrotation Xrotation
									End Site #name: RightHand
									{
										OFFSET -21.306808 0.000000 0.000000
									}
								}
							}
						}
					}
				}
			}
		}
	}
	JOINT Hips_LeftUpLeg
	{
		OFFSET 0.000000 0.000000 0.000000
		CHANNELS 3 Zrotation Yrotation Xrotation
		JOINT LeftUpLeg
		{
			OFFSET 6.857700 -6.739601 0.312100
			CHANNELS 3 Zrotation Yrotation Xrotation
			JOINT LeftLeg
			{
				OFFSET -0.367590 -34.731552 -4.572400
				CHANNELS 3 Zrotation Yrotation Xrotation
				End Site #name: LeftFoot
				{
					OFFSET 0.367590 -34.656704 -6.067400
				}
			}
		}
	}
	JOINT Hips_RightUpLeg
	{
		OFFSET 0.000000 0.000000 0.000000
		CHANNELS 3 Zrotation Yrotation Xrotation
		JOINT RightUpLeg
		{
			OFFSET -6.876100 -6.733299 0.301000
			CHANNELS 3 Zrotation Yrotation Xrotation
			JOINT RightLeg
			{
				OFFSET 0.347353 -34.795158 -4.515900
				CHANNELS 3 Zrotation Yrotation Xrotation
				End Site #name: RightFoot
				{
					OFFSET -0.347353 -34.589367 -6.070300
				}
			}
		}
	}
}
MOTION
Frames: 9
Frame Time: 0.041667
-0.443852 -0.099212 -1.077012 -1.086537 -1.965420 -1.415571 0.000000 -0.000000 0.000000 -1.039822 0.706463 4.097181 -1.234430 0.023681 3.316978 0.000000 0.000000 0.000000 -1.425192 -0.357104 2.294983 2.445511 -2.780166 8.552130 -1.300413 -0.377105 3.625872 -4.678292 6.491930 -0.505134 -70.527934 -5.699348 31.163589 0.109823 -7.967701 0.284081 -1.666049 -0.307320 3.063131 13.162720 -1.520657 0.685842 49.573316 33.659162 -4.545647 179.299069 40.177819 -179.748430 0.000000 -0.000000 -0.000000 1.926309 12.675216 -16.432677 3.095062 2.689471 18.018281 0.000000 -0.000000 0.000000 -1.998756 -10.018867 -11.390089 0.101473 -1.209538 17.156011 
-0.500403 -0.104263 -1.104840 -1.023517 -1.985534 -1.421843 0.000000 -0.000000 0.000000 -1.034319 0.692505 4.036952 -1.205503 0.019032 3.323035 0.000000 0.000000 0.000000 -1.385733 -0.361991 2.316359 2.457073 -2.773380 8.550233 -1.266274 -0.380839 3.634918 -4.732272 6.432158 -0.502113 -70.664775 -5.919874 30.899789 0.110055 -7.719048 0.282352 -1.630887 -0.317923 3.075814 13.355213 -1.578038 0.659266 49.911827 33.471539 -4.075914 179.309971 40.287658 -179.746676 0.000000 -0.000000 -0.000000 1.933769 12.686464 -16.401347 3.078038 2.646661 17.972131 0.000000 -0.000000 0.000000 -1.993667 -10.020590 -11.375102 0.103723 -1.218792 17.135512 
-0.550538 -0.109331 -1.132967 -0.964266 -2.008174 -1.429439 0.000000 -0.000000 0.000000 -1.028063 0.677917 3.977518 -1.177092 0.015086 3.329611 0.000000 0.000000 0.000000 -1.348845 -0.367491 2.340197 2.454721 -2.763458 8.549528 -1.233482 -0.383406 3.643283 -4.789253 6.369668 -0.497562 -70.796681 -6.139027 30.622835 0.110792 -7.450408 0.281326 -1.596634 -0.324572 3.090151 13.544003 -1.624356 0.633781 50.269313 33.269546 -3.575427 179.322778 40.391505 -179.743382 0.000000 -0.000000 -0.000000 1.941420 12.695713 -16.368023 3.064024 2.613523 17.926515 0.000000 -0.000000 0.000000 -1.989648 -10.023204 -11.358825 0.104385 -1.229129 17.115436 
-0.594168 -0.114316 -1.161401 -0.909825 -2.027085 -1.437912 0.000000 -0.000000 0.000000 -1.023537 0.665778 3.913401 -1.148989 0.011630 3.334030 0.000000 0.000000 0.000000 -1.311374 -0.373309 2.362610 2.442342 -2.747616 8.548801 -1.200349 -0.385345 3.648010 -4.850136 6.303023 -0.492291 -70.917644 -6.374536 30.348286 0.110178 -7.185173 0.280143 -1.562463 -0.326758 3.101236 13.733278 -1.666071 0.609479 50.580343 33.045678 -3.080289 179.339958 40.540417 -179.736549 0.000000 -0.000000 -0.000000 1.947268 12.706990 -16.336917 3.053057 2.590088 17.883340 0.000000 -0.000000 0.000000 -1.988002 -10.024908 -11.344040 0.105911 -1.234577 17.102921 
-0.631096 -0.119195 -1.190118 -0.859164 -2.043067 -1.448487 0.000000 -0.000000 0.000000 -1.016865 0.653231 3.851848 -1.120080 0.009835 3.336915 0.000000 0.000000 0.000000 -1.273885 -0.376769 2.385301 2.414585 -2.723611 8.549578 -1.167275 -0.385587 3.653311 -4.906378 6.237197 -0.486378 -71.038135 -6.606430 30.076888 0.110286 -6.910723 0.277772 -1.527484 -0.328112 3.110143 13.929713 -1.701246 0.584372 50.869485 32.754219 -2.542319 179.357572 40.737892 -179.730421 0.000000 -0.000000 -0.000000 1.955243 12.716664 -16.309216 3.042453 2.572831 17.848147 0.000000 -0.000000 0.000000 -1.989687 -10.030639 -11.329268 0.106687 -1.239804 17.091608 
-0.661522 -0.123974 -1.218981 -0.812212 -2.056612 -1.460243 0.000000 -0.000000 0.000000 -1.010364 0.642993 3.786257 -1.089619 0.008775 3.338550 0.000000 0.000000 0.000000 -1.235393 -0.379454 2.406959 2.373333 -2.694703 8.552149 -1.132166 -0.385631 3.659141 -4.963150 6.175541 -0.481906 -71.150250 -6.837335 29.774601 0.109538 -6.620959 0.275649 -1.490593 -0.327056 3.116434 14.143507 -1.742596 0.555348 51.185849 32.417508 -1.923137 179.376249 40.994357 -179.725305 0.000000 -0.000000 -0.000000 1.961944 12.727005 -16.281414 3.037504 2.564588 17.815522 0.000000 -0.000000 0.000000 -1.992351 -10.032256 -11.312790 0.109431 -1.244395 17.076568 
-0.685549 -0.128627 -1.248040 -0.768818 -2.075875 -1.472799 0.000000 -0.000000 0.000000 -1.003979 0.631697 3.717916 -1.059050 0.008611 3.338865 0.000000 0.000000 0.000000 -1.195810 -0.380935 2.429103 2.323271 -2.659339 8.553254 -1.097193 -0.384032 3.664423 -5.033508 6.108639 -0.476449 -71.258943 -7.050813 29.477796 0.109850 -6.347644 0.272982 -1.453724 -0.324789 3.124573 14.359854 -1.774291 0.526583 51.533916 32.035071 -1.249047 179.399562 41.400595 -179.718762 0.000000 -0.000000 -0.000000 1.966396 12.738251 -16.253188 3.033718 2.563676 17.780774 0.000000 -0.000000 0.000000 -1.997040 -10.036509 -11.293564 0.109555 -1.249919 17.060671 
-0.703226 -0.133070 -1.277188 -0.729363 -2.097070 -1.484843 0.000000 -0.000000 0.000000 -1.000026 0.622246 3.642880 -1.026332 0.008266 3.335926 0.000000 0.000000 0.000000 -1.155002 -0.383422 2.448264 2.265685 -2.619777 8.555334 -1.059116 -0.382261 3.666118 -5.111965 6.042452 -0.470847 -71.364626 -7.274400 29.169671 0.108340 -6.074721 0.269908 -1.414647 -0.321755 3.127552 14.558890 -1.800747 0.501952 51.897650 31.622842 -0.577079 179.422933 41.889533 -179.716007 0.000000 -0.000000 -0.000000 1.970248 12.747787 -16.228378 3.033833 2.571132 17.753726 0.000000 -0.000000 0.000000 -2.004142 -10.037622 -11.277137 0.111333 -1.251460 17.048942 
-0.714661 -0.137289 -1.306481 -0.693501 -2.120508 -1.497448 0.000000 -0.000000 0.000000 -0.995767 0.612256 3.568392 -0.992901 0.008815 3.329890 0.000000 0.000000 0.000000 -1.112267 -0.385348 2.463892 2.202207 -2.577661 8.560448 -1.019641 -0.380385 3.665999 -5.193677 5.971221 -0.465083 -71.455913 -7.486668 28.865022 0.107741 -5.810852 0.267497 -1.373981 -0.317970 3.125768 14.732713 -1.816541 0.480144 52.284173 31.168621 0.116317 179.448402 42.446793 -179.711281 0.000000 -0.000000 -0.000000 1.971596 12.756787 -16.203763 3.034731 2.584682 17.727153 0.000000 -0.000000 0.000000 -2.012023 -10.038538 -11.263818 0.113822 -1.253793 17.038786 
